<svg aria-hidden="true" style="position: absolute; width: 0; height: 0; overflow: hidden;" version="1.1" xmlns="http://www.w3.org/2000/svg" xmlns:xlink="http://www.w3.org/1999/xlink">
<defs>
<symbol id="arrow-right" viewBox="0 0 60 32">
<path d="M57.416 17.416c0.363-0.362 0.588-0.863 0.588-1.416s-0.225-1.054-0.588-1.416l-12.728-12.728c-0.362-0.362-0.863-0.587-1.416-0.587-1.106 0-2.003 0.897-2.003 2.003 0 0.553 0.224 1.054 0.587 1.416l11.316 11.312-11.316 11.312c-0.362 0.362-0.587 0.863-0.587 1.416 0 1.106 0.897 2.003 2.003 2.003 0.553 0 1.054-0.224 1.416-0.587v0l12.728-12.728zM0 18h56v-4h-56v4z"></path>
</symbol>
<symbol id="hamburger" viewBox="0 0 32 32">
<path d="M2 5.6h28c1.105 0 2 0.895 2 2s-0.895 2-2 2h-28c-1.105 0-2-0.895-2-2s0.895-2 2-2z"></path>
<path d="M2 13.6h28c1.105 0 2 0.895 2 2s-0.895 2-2 2h-28c-1.105 0-2-0.895-2-2s0.895-2 2-2z"></path>
<path d="M2 21.6h28c1.105 0 2 0.895 2 2s-0.895 2-2 2h-28c-1.105 0-2-0.895-2-2s0.895-2 2-2z"></path>
</symbol>
<symbol id="instagram" viewBox="0 0 24 24">
<path d="M7 1c-1.657 0-3.158 0.673-4.243 1.757s-1.757 2.586-1.757 4.243v10c0 1.657 0.673 3.158 1.757 4.243s2.586 1.757 4.243 1.757h10c1.657 0 3.158-0.673 4.243-1.757s1.757-2.586 1.757-4.243v-10c0-1.657-0.673-3.158-1.757-4.243s-2.586-1.757-4.243-1.757zM7 3h10c1.105 0 2.103 0.447 2.828 1.172s1.172 1.723 1.172 2.828v10c0 1.105-0.447 2.103-1.172 2.828s-1.723 1.172-2.828 1.172h-10c-1.105 0-2.103-0.447-2.828-1.172s-1.172-1.723-1.172-2.828v-10c0-1.105 0.447-2.103 1.172-2.828s1.723-1.172 2.828-1.172zM16.989 11.223c-0.15-0.972-0.571-1.857-1.194-2.567-0.754-0.861-1.804-1.465-3.009-1.644-0.464-0.074-0.97-0.077-1.477-0.002-1.366 0.202-2.521 0.941-3.282 1.967s-1.133 2.347-0.93 3.712 0.941 2.521 1.967 3.282 2.347 1.133 3.712 0.93 2.521-0.941 3.282-1.967 1.133-2.347 0.93-3.712zM15.011 11.517c0.122 0.82-0.1 1.609-0.558 2.227s-1.15 1.059-1.969 1.18-1.609-0.1-2.227-0.558-1.059-1.15-1.18-1.969 0.1-1.609 0.558-2.227 1.15-1.059 1.969-1.18c0.313-0.046 0.615-0.042 0.87-0.002 0.74 0.11 1.366 0.47 1.818 0.986 0.375 0.428 0.63 0.963 0.72 1.543zM17.5 7.5c0.552 0 1-0.448 1-1s-0.448-1-1-1-1 0.448-1 1 0.448 1 1 1z"></path>
</symbol>
<symbol id="twitter" viewBox="0 0 24 24">
<path d="M20.833 5.262c-0.186 0.242-0.391 0.475-0.616 0.696-0.233 0.232-0.347 0.567-0.278 0.908 0.037 0.182 0.060 0.404 0.061 0.634 0 5.256-2.429 8.971-5.81 10.898-2.647 1.509-5.938 1.955-9.222 1.12 1.245-0.361 2.46-0.921 3.593-1.69 0.147-0.099 0.273-0.243 0.352-0.421 0.224-0.505-0.003-1.096-0.508-1.32-2.774-1.233-4.13-2.931-4.769-4.593-0.417-1.084-0.546-2.198-0.52-3.227 0.021-0.811 0.138-1.56 0.278-2.182 0.394 0.343 0.803 0.706 1.235 1.038 2.051 1.577 4.624 2.479 7.395 2.407 0.543-0.015 0.976-0.457 0.976-1v-1.011c-0.002-0.179 0.009-0.357 0.034-0.533 0.113-0.806 0.504-1.569 1.162-2.141 0.725-0.631 1.636-0.908 2.526-0.846s1.753 0.463 2.384 1.188c0.252 0.286 0.649 0.416 1.033 0.304 0.231-0.067 0.463-0.143 0.695-0.228zM22.424 2.183c-0.74 0.522-1.523 0.926-2.287 1.205-0.931-0.836-2.091-1.302-3.276-1.385-1.398-0.097-2.836 0.339-3.977 1.332-1.036 0.901-1.652 2.108-1.83 3.372-0.037 0.265-0.055 0.532-0.054 0.8-1.922-0.142-3.693-0.85-5.15-1.97-0.775-0.596-1.462-1.309-2.034-2.116-0.32-0.45-0.944-0.557-1.394-0.237-0.154 0.109-0.267 0.253-0.335 0.409 0 0-0.132 0.299-0.285 0.76-0.112 0.337-0.241 0.775-0.357 1.29-0.163 0.722-0.302 1.602-0.326 2.571-0.031 1.227 0.12 2.612 0.652 3.996 0.683 1.775 1.966 3.478 4.147 4.823-1.569 0.726-3.245 1.039-4.873 0.967-0.552-0.024-1.019 0.403-1.043 0.955-0.017 0.389 0.19 0.736 0.513 0.918 4.905 2.725 10.426 2.678 14.666 0.261 4.040-2.301 6.819-6.7 6.819-12.634-0.001-0.167-0.008-0.33-0.023-0.489 1.006-1.115 1.676-2.429 1.996-3.781 0.127-0.537-0.206-1.076-0.743-1.203-0.29-0.069-0.58-0.003-0.807 0.156z"></path>
</symbol>
<symbol id="facebook" viewBox="0 0 24 24">
<path d="M17 3v2h-2c-0.552 0-1.053 0.225-1.414 0.586s-0.586 0.862-0.586 1.414v3c0 0.552 0.448 1 1 1h2.719l-0.5 2h-2.219c-0.552 0-1 0.448-1 1v7h-2v-7c0-0.552-0.448-1-1-1h-2v-2h2c0.552 0 1-0.448 1-1v-3c0-1.105 0.447-2.103 1.172-2.828s1.723-1.172 2.828-1.172zM18 1h-3c-1.657 0-3.158 0.673-4.243 1.757s-1.757 2.586-1.757 4.243v2h-2c-0.552 0-1 0.448-1 1v4c0 0.552 0.448 1 1 1h2v7c0 0.552 0.448 1 1 1h4c0.552 0 1-0.448 1-1v-7h2c0.466 0 0.858-0.319 0.97-0.757l1-4c0.134-0.536-0.192-1.079-0.728-1.213-0.083-0.021-0.167-0.031-0.242-0.030h-3v-2h3c0.552 0 1-0.448 1-1v-4c0-0.552-0.448-1-1-1z"></path>
</symbol>
<symbol id="play" viewBox="0 0 32 32">
<path d="M14.747 8.724c-0.986 0.173-2.11 0.634-2.96 1.215-0.603 0.412-1.519 1.351-1.936 1.983-0.829 1.257-1.218 2.559-1.218 4.078 0 2.033 0.717 3.757 2.163 5.204 1.44 1.439 3.186 2.166 5.204 2.166s3.764-0.727 5.204-2.166c1.439-1.44 2.166-3.186 2.166-5.204 0-1.499-0.402-2.839-1.222-4.078-0.42-0.635-1.34-1.578-1.934-1.984-0.875-0.596-1.966-1.040-2.983-1.213-0.619-0.105-1.886-0.106-2.484-0.001zM17.153 14.741l2.535 1.464-0.497 0.29c-1.46 0.853-4.682 2.704-4.708 2.704-0.016 0-0.030-1.346-0.030-2.992 0-2.667 0.009-2.989 0.082-2.961 0.045 0.017 1.223 0.69 2.618 1.495z"></path>
</symbol>
<symbol id="time" viewBox="0 0 32 32">
<path d="M16 31c-8.284 0-15-6.716-15-15s6.716-15 15-15v0c8.284 0 15 6.716 15 15s-6.716 15-15 15v0zM16 3c-7.18 0-13 5.82-13 13s5.82 13 13 13v0c7.18 0 13-5.82 13-13s-5.82-13-13-13v0z"></path>
<path d="M20.24 21.661l-4.949-4.952c-0.18-0.181-0.291-0.43-0.291-0.705 0-0.002 0-0.003 0-0.005v0-8h2v7.589l4.661 4.651-1.421 1.421z"></path>
</symbol>
<symbol id="price" viewBox="0 0 32 32">
<path d="M19.36 4.14c-1.969 0.175-3.299 0.506-4.449 1.105-0.606 0.316-1.060 0.723-1.262 1.133l-0.129 0.263-0.015 2.785-0.015 2.785-0.172-0.038c-0.095-0.021-1-0.038-2.012-0.038-1.669 0-1.912 0.012-2.613 0.124-2.444 0.393-4.098 1.21-4.472 2.211-0.115 0.309-0.115 0.309-0.115 5.527 0 5.771-0.020 5.425 0.349 5.928 0.702 0.957 2.699 1.685 5.265 1.921 1.012 0.093 3.173 0.036 4.119-0.109 2.136-0.327 3.714-0.989 4.318-1.812 0.32-0.436 0.349-0.585 0.349-1.776v-1.066l0.2 0.032c0.465 0.074 2.896 0.1 3.566 0.038 3.024-0.278 5.128-1.195 5.544-2.415 0.068-0.199 0.077-1.174 0.065-7.163l-0.014-6.933-0.129-0.263c-0.489-0.994-2.337-1.826-4.751-2.14-0.636-0.083-3.062-0.148-3.627-0.097zM22.933 5.518c1.569 0.213 2.95 0.703 3.482 1.235 0.268 0.268 0.26 0.406-0.042 0.696-0.578 0.553-1.998 1.023-3.786 1.251-0.699 0.089-3.088 0.089-3.787 0-1.788-0.228-3.209-0.698-3.786-1.251-0.305-0.292-0.314-0.439-0.044-0.701 0.67-0.651 2.305-1.139 4.443-1.328 0.544-0.048 2.934 0.019 3.52 0.099zM15.091 9.039c0.387 0.196 1.607 0.589 2.216 0.714 1.122 0.23 1.849 0.293 3.387 0.293s2.265-0.063 3.387-0.293c0.609-0.125 1.829-0.518 2.216-0.714 0.143-0.073 0.274-0.132 0.289-0.132s0.028 0.36 0.028 0.8v0.8l-0.212 0.212c-0.562 0.562-2.284 1.114-3.991 1.28-0.776 0.075-2.659 0.075-3.434 0-1.707-0.165-3.429-0.717-3.991-1.28l-0.212-0.212v-0.8c0-0.44 0.013-0.8 0.028-0.8s0.146 0.059 0.289 0.132zM15.893 12.642c1.518 0.542 3.449 0.772 5.72 0.681 1.817-0.072 3.592-0.454 4.69-1.008l0.31-0.157v1.598l-0.161 0.184c-0.474 0.54-1.748 1.011-3.428 1.267-0.615 0.094-1.013 0.116-2.117 0.121-0.748 0.003-1.594-0.015-1.88-0.039l-0.52-0.045v-0.233c0-0.71-0.538-1.354-1.551-1.854-0.609-0.301-1.297-0.55-1.876-0.679-0.267-0.059-0.307-0.084-0.307-0.194v-0.126l0.28 0.142c0.154 0.078 0.532 0.232 0.84 0.342zM13.707 13.517c1.933 0.305 3.52 1.007 3.52 1.557 0 0.316-0.711 0.775-1.725 1.113-1.178 0.393-2.443 0.563-4.195 0.563s-3.017-0.17-4.195-0.563c-1.014-0.338-1.725-0.797-1.725-1.113 0-0.559 1.673-1.291 3.547-1.551 0.903-0.125 0.912-0.126 2.613-0.11 1.166 0.011 1.752 0.039 2.16 0.103zM26.613 16.276v0.809l-0.228 0.218c-0.96 0.915-3.925 1.495-6.705 1.313-0.513-0.034-0.987-0.075-1.053-0.091-0.119-0.030-0.12-0.038-0.12-1.017v-0.988l0.28 0.033c0.648 0.076 2.601 0.099 3.32 0.039 1.706-0.142 3.248-0.506 4.16-0.981 0.147-0.076 0.285-0.14 0.307-0.142s0.040 0.362 0.040 0.807zM6.507 17.335c1.518 0.542 3.449 0.772 5.72 0.681 1.824-0.073 3.609-0.46 4.72-1.023l0.28-0.142v0.797c0 0.789-0.001 0.799-0.145 0.969-0.647 0.769-2.78 1.347-5.242 1.419-2.753 0.081-5.309-0.46-6.192-1.311l-0.261-0.252v-1.621l0.28 0.142c0.154 0.078 0.532 0.232 0.84 0.342zM26.613 19.538v0.818l-0.2 0.201c-0.627 0.629-2.222 1.129-4.195 1.314-0.66 0.062-2.94 0.038-3.485-0.037l-0.227-0.031v-1.013c0-0.877 0.011-1.009 0.080-0.983 0.044 0.017 0.558 0.058 1.142 0.092 2.477 0.144 5.090-0.258 6.538-1.008 0.176-0.091 0.326-0.167 0.333-0.168s0.013 0.365 0.013 0.815zM5.748 20.313c2.71 1.362 8.449 1.353 11.154-0.017 0.147-0.075 0.281-0.136 0.297-0.136s0.028 0.364 0.028 0.809v0.809l-0.228 0.218c-0.579 0.552-1.951 1.012-3.692 1.237-0.953 0.123-3.047 0.123-4 0-1.748-0.226-3.114-0.684-3.692-1.237l-0.228-0.218v-0.809c0-0.445 0.013-0.809 0.028-0.809s0.165 0.069 0.333 0.153zM6.907 24.044c3.123 0.924 7.626 0.72 9.959-0.451l0.36-0.181v1.637l-0.2 0.201c-0.483 0.484-1.554 0.901-2.947 1.146-0.932 0.164-1.615 0.218-2.773 0.218-0.58 0-1.304-0.025-1.608-0.055-1.904-0.189-3.519-0.702-4.127-1.31l-0.186-0.186v-1.643l0.493 0.233c0.271 0.128 0.734 0.304 1.027 0.391z"></path>
</symbol>
<symbol id="phone" viewBox="0 0 32 32">
<path d="M15.345 0.909c-8.598 0.717-14.89 8.409-13.829 16.904 0.245 1.961 0.831 3.74 1.7 5.343l-0.039-0.079c0.189 0.359 0.344 0.694 0.344 0.748s-0.588 1.844-1.307 3.98c-0.097 0.124-0.542 1.442-0.972 2.768l-0.335 1.198c0 0.057 0.035 0.072 0.121 0.054 0.066-0.015 1.883-0.595 4.039-1.285 2.156-0.692 3.997-1.258 4.088-1.258 0.099-0.002 0.413 0.12 0.756 0.291 1.467 0.731 3.069 1.199 4.864 1.423 0.733 0.091 2.749 0.089 3.466-0.002 3.308-0.424 6.161-1.745 8.586-3.975 1.977-1.817 3.562-4.45 4.264-7.079 0.406-1.521 0.593-3.399 0.485-4.857-0.362-4.933-2.745-9.037-6.819-11.747-1.802-1.218-3.959-2.054-6.286-2.341l-0.071-0.007c-0.608-0.068-1.312-0.107-2.025-0.107-0.362 0-0.722 0.010-1.079 0.030l0.050-0.002zM17.76 3.469c4.177 0.382 8.040 3.025 9.932 6.796 1.021 2.033 1.427 3.865 1.359 6.132-0.093 3.141-1.194 5.79-3.414 8.212-1 1.079-2.187 1.967-3.514 2.615l-0.070 0.031c-1.599 0.817-3.488 1.296-5.489 1.296-0.039 0-0.078-0-0.117-0.001l0.006 0c-0.057 0.001-0.124 0.002-0.191 0.002-1.392 0-2.725-0.253-3.955-0.716l0.077 0.026c-0.991-0.402-1.802-0.794-2.585-1.229l0.121 0.061c-0.123-0.071-0.267-0.119-0.422-0.134l-0.005-0c-0.103 0.002-1.184 0.323-2.4 0.717-1.218 0.394-2.232 0.699-2.253 0.677-0.024-0.022 0.283-1.011 0.679-2.195 0.396-1.186 0.721-2.233 0.721-2.329 0-0.126-0.111-0.354-0.392-0.803-1.157-1.846-1.743-3.678-1.903-5.95-0.189-2.683 0.564-5.344 2.205-7.796 0.71-1.030 1.523-1.918 2.443-2.683l0.021-0.017c1.814-1.44 4.367-2.501 6.521-2.708 0.682-0.066 1.923-0.067 2.626-0.003zM10.895 8.716c-0.569 0.269-1.336 1.211-1.635 2.008-0.403 1.069-0.394 2.104 0.029 3.377 0.583 1.758 2.836 4.881 4.574 6.336 1.4 1.172 2.589 1.836 4.591 2.562 1.475 0.536 2.080 0.62 2.996 0.418 1.715-0.379 2.735-1.415 2.897-2.942 0.040-0.382-0.040-0.657-0.229-0.775-0.563-0.35-3.020-1.62-3.335-1.723-0.298-0.096-0.448-0.010-0.869 0.495-0.935 1.123-1.251 1.423-1.507 1.423-0.17 0-1.457-0.669-2.048-1.064-1.103-0.751-2.023-1.681-2.741-2.757l-0.023-0.037c-0.49-0.728-0.741-1.201-0.741-1.393 0-0.094 0.13-0.276 0.429-0.601 0.734-0.798 1.011-1.299 0.909-1.644-0.108-0.364-1.197-3.213-1.295-3.389-0.168-0.3-0.31-0.352-1.058-0.391-0.637-0.034-0.679-0.029-0.945 0.098z"></path>
</symbol>
<symbol id="telegram" viewBox="0 0 32 32">
<path d="M28 3.301c-0.498 0.136-24.942 9.566-25.531 9.85-0.61 0.293-1.117 0.746-1.334 1.187-0.128 0.262-0.147 0.365-0.147 0.782 0 0.416 0.019 0.515 0.142 0.747 0.186 0.35 0.528 0.686 0.923 0.907 0.354 0.197 7.059 2.318 7.328 2.318 0.083 0 0.245-0.032 0.358-0.074 0.115-0.040 1.803-1.078 3.754-2.309-3.384 1.974-2.201 1.221-1.017 0.47l4.644-2.75c0.16-0.090-0.341 0.373-2.613 2.421-1.918 1.726-2.346 2.136-2.466 2.365-0.146 0.277-0.147 0.286-0.386 3.717-0.264 3.8-0.264 3.803 0.043 4.13 0.222 0.235 0.533 0.318 1.048 0.28 0.507-0.026 0.968-0.201 1.346-0.482l-0.007 0.005c0.166-0.123 0.893-0.797 1.618-1.496 0.928-0.896 1.334-1.256 1.379-1.219 0.035 0.027 1.349 0.997 2.922 2.154 1.834 1.35 2.962 2.146 3.15 2.222 0.728 0.294 1.293 0.346 1.869 0.168 0.853-0.264 1.451-1.027 1.72-2.195 0.042-0.187 1.018-4.766 2.168-10.179 2.238-10.536 2.234-10.512 2.078-11.258-0.182-0.882-0.878-1.613-1.717-1.806-0.161-0.031-0.346-0.049-0.535-0.049-0.263 0-0.517 0.034-0.76 0.098l0.021-0.005zM28.819 5.603c0.018 0.088-0.013 0.395-0.069 0.68-0.35 1.784-4.23 19.939-4.294 20.091-0.085 0.205-0.17 0.226-0.406 0.104-0.086-0.045-1.579-1.131-3.317-2.413s-3.266-2.384-3.395-2.451c-0.123-0.073-0.27-0.115-0.428-0.115-0.146 0-0.284 0.037-0.404 0.102l0.005-0.002c-0.123 0.059-0.752 0.616-1.443 1.277-0.674 0.645-1.232 1.165-1.242 1.155-0.008-0.008 0.046-0.866 0.122-1.904 0.091-1.25 0.158-1.906 0.202-1.946l5.866-5.296c3.19-2.88 5.859-5.33 5.931-5.443 0.403-0.637 0.256-1.445-0.33-1.816-0.496-0.315-1.107-0.326-1.75-0.032-0.158 0.072-3.486 2.146-7.397 4.606l-7.178 4.515c-0.056 0.034-5.282-1.554-5.488-1.667-0.072-0.040 24.69-9.603 24.87-9.606 0.083-0.002 0.122 0.040 0.146 0.162z"></path>
</symbol>
<symbol id="mail" viewBox="0 0 32 32">
<path d="M3.168 4.376c-1.189 0.157-2.264 0.856-2.951 1.918l-0.217 0.335v18.742l0.217 0.335c0.591 0.915 1.521 1.592 2.543 1.854 0.337 0.088 1.201 0.093 13.24 0.093s12.903-0.005 13.24-0.093c1.072-0.294 1.957-0.955 2.533-1.838l0.010-0.017 0.217-0.335v-18.742l-0.217-0.335c-0.583-0.89-1.457-1.549-2.485-1.845l-0.031-0.008c-0.31-0.086-1.235-0.093-13.053-0.101-6.996-0.003-12.867 0.012-13.046 0.035zM28.972 6.809c0.352 0.163 0.761 0.564 0.935 0.918l0.147 0.3v15.946l-0.115 0.248c-0.175 0.341-0.425 0.623-0.728 0.83l-0.008 0.005c-0.461 0.29 0.227 0.276-13.203 0.276-13.361 0-12.751 0.012-13.192-0.261-0.312-0.22-0.564-0.505-0.74-0.836l-0.006-0.013-0.115-0.249v-7.946c0-7.705 0.003-7.955 0.103-8.212 0.177-0.364 0.435-0.664 0.754-0.884l0.007-0.005c0.429-0.264-0.221-0.253 13.27-0.243l12.64 0.010 0.251 0.116zM3.057 7.731c-0.342 0.209-0.468 0.595-0.308 0.931 0.076 0.16 0.968 0.867 4.805 3.801 2.59 1.982 4.699 3.623 4.685 3.646-0.015 0.024-2.105 1.608-4.647 3.525-2.762 2.082-4.66 3.547-4.719 3.643-0.060 0.104-0.096 0.229-0.096 0.363 0 0.126 0.032 0.245 0.088 0.348l-0.002-0.004c0.118 0.251 0.355 0.387 0.672 0.389 0.278 0 0.029 0.18 7.987-5.832l2.001-1.511 0.692 0.532c0.866 0.665 1.149 0.805 1.652 0.808 0.527 0.003 0.775-0.111 1.634-0.751 0.406-0.305 0.763-0.554 0.79-0.554 0.029 0 2.195 1.602 4.813 3.559 2.619 1.955 4.845 3.599 4.947 3.653 0.095 0.057 0.211 0.091 0.334 0.091 0.13 0 0.251-0.038 0.353-0.103l-0.003 0.002c0.374-0.229 0.492-0.682 0.264-1.019-0.076-0.113-1.901-1.507-4.771-3.648-2.557-1.907-4.642-3.49-4.635-3.515 0.007-0.027 2.147-1.642 4.756-3.591 4.918-3.673 4.985-3.729 4.985-4.086 0-0.212-0.212-0.556-0.397-0.645-0.307-0.145-0.563-0.109-0.888 0.12-0.158 0.111-2.902 2.152-6.095 4.536 2.109-1.462 0.179-0.013-1.755 1.431l-4.175 2.983c-0.093 0.061-0.148 0.067-0.231 0.024-3.361-2.497-5.102-3.831-6.836-5.173l1.487 1.107c-2.885-2.205-5.587-4.269-6.004-4.586-0.691-0.525-0.781-0.579-0.987-0.579-0.145 0.004-0.281 0.042-0.401 0.107l0.005-0.002z"></path>
</symbol>
</defs>
</svg>
