<svg aria-hidden="true" style="position: absolute; width: 0; height: 0; overflow: hidden;" version="1.1" xmlns="http://www.w3.org/2000/svg" xmlns:xlink="http://www.w3.org/1999/xlink">
<defs>
<symbol id="arrow-right" viewBox="0 0 60 32">
<path d="M57.416 17.416c0.363-0.362 0.588-0.863 0.588-1.416s-0.225-1.054-0.588-1.416l-12.728-12.728c-0.362-0.362-0.863-0.587-1.416-0.587-1.106 0-2.003 0.897-2.003 2.003 0 0.553 0.224 1.054 0.587 1.416l11.316 11.312-11.316 11.312c-0.362 0.362-0.587 0.863-0.587 1.416 0 1.106 0.897 2.003 2.003 2.003 0.553 0 1.054-0.224 1.416-0.587v0l12.728-12.728zM0 18h56v-4h-56v4z"></path>
</symbol>
<symbol id="hamburger" viewBox="0 0 32 32">
<path d="M2 5.6h28c1.105 0 2 0.895 2 2s-0.895 2-2 2h-28c-1.105 0-2-0.895-2-2s0.895-2 2-2z"></path>
<path d="M2 13.6h28c1.105 0 2 0.895 2 2s-0.895 2-2 2h-28c-1.105 0-2-0.895-2-2s0.895-2 2-2z"></path>
<path d="M2 21.6h28c1.105 0 2 0.895 2 2s-0.895 2-2 2h-28c-1.105 0-2-0.895-2-2s0.895-2 2-2z"></path>
</symbol>
</defs>
</svg>
